<svg width="32" height="32" viewBox="0 0 32 32" fill="none" xmlns="http://www.w3.org/2000/svg">
<path fill-rule="evenodd" clip-rule="evenodd" d="M15.9997 7.85001C11.4985 7.85001 7.84966 11.4989 7.84966 16C7.84966 20.5011 11.4985 24.15 15.9997 24.15C20.5008 24.15 24.1497 20.5011 24.1497 16C24.1497 11.4989 20.5008 7.85001 15.9997 7.85001ZM6.14966 16C6.14966 10.56 10.5597 6.15001 15.9997 6.15001C21.4397 6.15001 25.8497 10.56 25.8497 16C25.8497 21.44 21.4397 25.85 15.9997 25.85C10.5597 25.85 6.14966 21.44 6.14966 16Z" fill="white"/>
<path fill-rule="evenodd" clip-rule="evenodd" d="M15.9997 14.5875C16.4691 14.5875 16.8497 14.9681 16.8497 15.4375V20.5C16.8497 20.9694 16.4691 21.35 15.9997 21.35C15.5302 21.35 15.1497 20.9694 15.1497 20.5V15.4375C15.1497 14.9681 15.5302 14.5875 15.9997 14.5875Z" fill="white"/>
<path fill-rule="evenodd" clip-rule="evenodd" d="M15.9997 11.2125C16.4691 11.2125 16.8497 11.5931 16.8497 12.0625V12.625C16.8497 13.0944 16.4691 13.475 15.9997 13.475C15.5302 13.475 15.1497 13.0944 15.1497 12.625V12.0625C15.1497 11.5931 15.5302 11.2125 15.9997 11.2125Z" fill="white"/>
</svg>
