<svg width="32" height="32" viewBox="0 0 32 32" fill="none" xmlns="http://www.w3.org/2000/svg">
<path fill-rule="evenodd" clip-rule="evenodd" d="M15.4997 9.30396C14.0361 9.30396 12.8497 10.4904 12.8497 11.954C12.8497 13.4175 14.0361 14.604 15.4997 14.604C16.9632 14.604 18.1497 13.4175 18.1497 11.954C18.1497 10.4904 16.9632 9.30396 15.4997 9.30396ZM11.1497 11.954C11.1497 9.55152 13.0972 7.60396 15.4997 7.60396C17.9021 7.60396 19.8497 9.55152 19.8497 11.954C19.8497 14.3564 17.9021 16.304 15.4997 16.304C13.0972 16.304 11.1497 14.3564 11.1497 11.954Z" fill="white"/>
<path fill-rule="evenodd" clip-rule="evenodd" d="M6.14966 22.5C6.14966 19.8214 8.32108 17.65 10.9997 17.65H19.9997C22.6782 17.65 24.8497 19.8214 24.8497 22.5V25C24.8497 25.4694 24.4691 25.35 23.9997 25.35C23.5302 25.35 23.1497 24.9694 23.1497 24.5V22.5C23.1497 20.7603 21.7394 19.35 19.9997 19.35H10.9997C9.25996 19.35 7.84966 20.7603 7.84966 22.5V24.5C7.84966 24.9694 7.4691 25.35 6.99966 25.35C6.53022 25.35 6.14966 25.4694 6.14966 25L6.14966 22.5Z" fill="white"/>
<path fill-rule="evenodd" clip-rule="evenodd" d="M6.14966 25C6.14966 24.5305 6.53022 24.15 6.99966 24.15L23.9997 24.15C24.4691 24.15 24.8497 24.5306 24.8497 25C24.8497 25.4694 24.4691 25.85 23.9997 25.85H6.99966C6.53022 25.85 6.14966 25.4694 6.14966 25Z" fill="white"/>
</svg>
