<svg width="32" height="32" viewBox="0 0 32 32" fill="none" xmlns="http://www.w3.org/2000/svg">
<path fill-rule="evenodd" clip-rule="evenodd" d="M10.4638 8.85C9.57253 8.85 8.85002 9.57251 8.85002 10.4638V21.3043C8.85002 22.1956 9.57253 22.9181 10.4638 22.9181H21.3044C22.1956 22.9181 22.9181 22.1956 22.9181 21.3044V15.8841C22.9181 15.4146 23.2987 15.0341 23.7681 15.0341C24.2376 15.0341 24.6181 15.4146 24.6181 15.8841V21.3044C24.6181 23.1345 23.1345 24.6181 21.3044 24.6181H10.4638C8.63365 24.6181 7.15002 23.1345 7.15002 21.3043V10.4638C7.15002 8.63362 8.63365 7.15 10.4638 7.15H19.8261C20.2956 7.15 20.6761 7.53056 20.6761 8C20.6761 8.46944 20.2956 8.85 19.8261 8.85H10.4638ZM25.6011 7.89171C25.933 8.22366 25.933 8.76185 25.6011 9.0938L16.4851 18.2097C16.1532 18.5417 15.615 18.5417 15.283 18.2097L12.3265 15.2532C11.9946 14.9213 11.9946 14.3831 12.3265 14.0511C12.6585 13.7192 13.1967 13.7192 13.5286 14.0511L15.8841 16.4066L24.399 7.89171C24.7309 7.55977 25.2691 7.55977 25.6011 7.89171Z" fill="white"/>
</svg>
