<svg width="24" height="24" viewBox="0 0 24 24" fill="none" xmlns="http://www.w3.org/2000/svg">
<path fill-rule="evenodd" clip-rule="evenodd" d="M19.6596 5.67794C20.1408 6.22368 20.5034 6.8674 20.7237 7.56672C20.9614 8.29783 21.0472 9.07162 20.9754 9.83856C20.9037 10.6055 20.6761 11.3487 20.3072 12.0205C19.0193 14.3407 16.4307 16.9341 12.6108 19.7273C12.4364 19.8546 12.2274 19.9231 12.0131 19.9231C11.7988 19.9231 11.5898 19.8546 11.4154 19.7273C7.57748 16.9289 4.98886 14.3354 3.70354 12.0179C3.3307 11.3453 3.09988 10.6003 3.02593 9.83091C2.95199 9.06154 3.03658 8.28487 3.27425 7.55095C3.49563 6.85381 3.85883 6.21245 4.33998 5.669C4.82113 5.12556 5.40934 4.69235 6.06595 4.39782C7.57234 3.7199 9.13271 3.90909 10.5774 4.96013C11.1092 5.35023 11.5873 5.81155 11.999 6.33174C12.4106 5.81155 12.8887 5.35023 13.4205 4.96013C14.8678 3.91434 16.4256 3.72253 17.932 4.40045C18.5896 4.69682 19.1784 5.1322 19.6596 5.67794Z" stroke="black" stroke-width="1.5"/>
</svg>
